<mxfile host="app.diagrams.net" modified="2024-03-13T01:19:02.628Z" agent="Mozilla/5.0 (Windows NT 10.0; Win64; x64) AppleWebKit/537.36 (KHTML, like Gecko) Chrome/117.0.0.0 Safari/537.36" etag="wbhOv-DS-O8oPO5CaM9I" version="24.0.4" type="github">
  <diagram id="C5RBs43oDa-KdzZeNtuy" name="Page-1">
    <mxGraphModel dx="607" dy="768" grid="1" gridSize="10" guides="1" tooltips="1" connect="1" arrows="1" fold="1" page="1" pageScale="1" pageWidth="827" pageHeight="1169" math="0" shadow="0">
      <root>
        <mxCell id="WIyWlLk6GJQsqaUBKTNV-0" />
        <mxCell id="WIyWlLk6GJQsqaUBKTNV-1" parent="WIyWlLk6GJQsqaUBKTNV-0" />
        <mxCell id="8sShFJXzrjoNy3E7Pt8Y-33" value="" style="rounded=0;whiteSpace=wrap;html=1;" parent="WIyWlLk6GJQsqaUBKTNV-1" vertex="1">
          <mxGeometry x="1820" y="370" width="180" height="300" as="geometry" />
        </mxCell>
        <mxCell id="8sShFJXzrjoNy3E7Pt8Y-23" value="" style="rounded=0;whiteSpace=wrap;html=1;" parent="WIyWlLk6GJQsqaUBKTNV-1" vertex="1">
          <mxGeometry x="940" y="370" width="330" height="340" as="geometry" />
        </mxCell>
        <mxCell id="8sShFJXzrjoNy3E7Pt8Y-2" value="" style="edgeStyle=orthogonalEdgeStyle;rounded=0;orthogonalLoop=1;jettySize=auto;html=1;" parent="WIyWlLk6GJQsqaUBKTNV-1" source="8sShFJXzrjoNy3E7Pt8Y-0" target="8sShFJXzrjoNy3E7Pt8Y-1" edge="1">
          <mxGeometry relative="1" as="geometry" />
        </mxCell>
        <mxCell id="8sShFJXzrjoNy3E7Pt8Y-44" style="edgeStyle=orthogonalEdgeStyle;rounded=0;orthogonalLoop=1;jettySize=auto;html=1;exitX=1;exitY=0.5;exitDx=0;exitDy=0;entryX=0.5;entryY=0;entryDx=0;entryDy=0;" parent="WIyWlLk6GJQsqaUBKTNV-1" source="8sShFJXzrjoNy3E7Pt8Y-0" target="8sShFJXzrjoNy3E7Pt8Y-16" edge="1">
          <mxGeometry relative="1" as="geometry" />
        </mxCell>
        <mxCell id="8sShFJXzrjoNy3E7Pt8Y-0" value="空服务" style="rounded=1;whiteSpace=wrap;html=1;" parent="WIyWlLk6GJQsqaUBKTNV-1" vertex="1">
          <mxGeometry x="1520" y="120" width="120" height="60" as="geometry" />
        </mxCell>
        <mxCell id="8sShFJXzrjoNy3E7Pt8Y-1" value="&lt;div style=&quot;font-size: medium; text-align: start;&quot; data-hash=&quot;3e45efe6a880c21dcbc873dc145f4ac9&quot; data-version=&quot;3.0.0&quot;&gt;&lt;/div&gt;&lt;div style=&quot;font-size: medium; text-align: start;&quot; class=&quot;document&quot;&gt;&lt;div class=&quot;section&quot;&gt;&lt;p style=&quot;margin: 3pt 0pt 3pt 16.8pt; font-family: 等线; font-size: 12pt; line-height: 20.8px; text-indent: -16.8pt;&quot; class=&quot;paragraph text-align-type-left&quot;&gt;&lt;span style=&quot;font-size: 11pt; color: rgb(51, 51, 51); letter-spacing: 0pt; vertical-align: baseline;&quot; data-font-family=&quot;default&quot;&gt;归因微服务&lt;/span&gt;&lt;/p&gt;&lt;/div&gt;&lt;/div&gt;" style="rounded=1;whiteSpace=wrap;html=1;" parent="WIyWlLk6GJQsqaUBKTNV-1" vertex="1">
          <mxGeometry x="1040" y="260" width="120" height="60" as="geometry" />
        </mxCell>
        <mxCell id="8sShFJXzrjoNy3E7Pt8Y-3" value="&lt;div style=&quot;font-size: medium; text-align: start;&quot; data-hash=&quot;3e45efe6a880c21dcbc873dc145f4ac9&quot; data-version=&quot;3.0.0&quot;&gt;&lt;/div&gt;&lt;div style=&quot;font-size: medium; text-align: start;&quot; class=&quot;document&quot;&gt;&lt;div class=&quot;section&quot;&gt;&lt;p style=&quot;margin: 3pt 0pt 3pt 16.8pt; font-family: 等线; font-size: 12pt; line-height: 20.8px; text-indent: -16.8pt;&quot; class=&quot;paragraph text-align-type-left&quot;&gt;&lt;span style=&quot;font-family: Helvetica; font-size: 12px; text-align: center; text-indent: 0px;&quot;&gt;投资中心组合组归因&lt;/span&gt;&lt;br&gt;&lt;/p&gt;&lt;/div&gt;&lt;/div&gt;" style="rounded=1;whiteSpace=wrap;html=1;" parent="WIyWlLk6GJQsqaUBKTNV-1" vertex="1">
          <mxGeometry x="960" y="385" width="120" height="60" as="geometry" />
        </mxCell>
        <mxCell id="8sShFJXzrjoNy3E7Pt8Y-5" value="投资中心组合组归因指数对标" style="rounded=1;whiteSpace=wrap;html=1;" parent="WIyWlLk6GJQsqaUBKTNV-1" vertex="1">
          <mxGeometry x="960" y="470" width="120" height="60" as="geometry" />
        </mxCell>
        <mxCell id="8sShFJXzrjoNy3E7Pt8Y-7" value="投资中心去ABS归因" style="rounded=1;whiteSpace=wrap;html=1;" parent="WIyWlLk6GJQsqaUBKTNV-1" vertex="1">
          <mxGeometry x="1120" y="380" width="130" height="60" as="geometry" />
        </mxCell>
        <mxCell id="8sShFJXzrjoNy3E7Pt8Y-11" value="做市中心归因" style="rounded=1;whiteSpace=wrap;html=1;" parent="WIyWlLk6GJQsqaUBKTNV-1" vertex="1">
          <mxGeometry x="1120" y="470" width="130" height="60" as="geometry" />
        </mxCell>
        <mxCell id="8sShFJXzrjoNy3E7Pt8Y-15" value="&lt;div style=&quot;font-size: medium; text-align: start;&quot; data-hash=&quot;3e45efe6a880c21dcbc873dc145f4ac9&quot; data-version=&quot;3.0.0&quot;&gt;&lt;/div&gt;&lt;div style=&quot;font-size: medium; text-align: start;&quot; class=&quot;document&quot;&gt;&lt;div class=&quot;section&quot;&gt;&lt;p style=&quot;margin: 3pt 0pt 3pt 16.8pt; font-family: 等线; font-size: 12pt; line-height: 20.8px; text-indent: -16.8pt;&quot; class=&quot;paragraph text-align-type-left&quot;&gt;&lt;span style=&quot;font-size: 11pt; color: rgb(51, 51, 51); letter-spacing: 0pt; vertical-align: baseline;&quot; data-font-family=&quot;default&quot;&gt;基础服务&lt;/span&gt;&lt;/p&gt;&lt;/div&gt;&lt;/div&gt;" style="rounded=1;whiteSpace=wrap;html=1;" parent="WIyWlLk6GJQsqaUBKTNV-1" vertex="1">
          <mxGeometry x="1520" y="260" width="120" height="60" as="geometry" />
        </mxCell>
        <mxCell id="8sShFJXzrjoNy3E7Pt8Y-16" value="&lt;div style=&quot;font-size: medium; text-align: start;&quot; data-hash=&quot;3e45efe6a880c21dcbc873dc145f4ac9&quot; data-version=&quot;3.0.0&quot;&gt;&lt;/div&gt;&lt;div style=&quot;text-align: start;&quot; class=&quot;document&quot;&gt;&lt;div style=&quot;&quot; class=&quot;section&quot;&gt;&lt;p style=&quot;margin: 3pt 0pt 3pt 16.8pt; font-family: 等线; line-height: 20.8px; text-indent: -16.8pt;&quot; class=&quot;paragraph text-align-type-left&quot;&gt;&lt;font color=&quot;#333333&quot;&gt;&lt;span style=&quot;font-size: 14.6667px;&quot;&gt;微服务3&lt;/span&gt;&lt;/font&gt;&lt;/p&gt;&lt;/div&gt;&lt;/div&gt;" style="rounded=1;whiteSpace=wrap;html=1;" parent="WIyWlLk6GJQsqaUBKTNV-1" vertex="1">
          <mxGeometry x="1850" y="260" width="120" height="60" as="geometry" />
        </mxCell>
        <mxCell id="8sShFJXzrjoNy3E7Pt8Y-19" value="" style="rounded=0;whiteSpace=wrap;html=1;" parent="WIyWlLk6GJQsqaUBKTNV-1" vertex="1">
          <mxGeometry x="1450" y="390" width="240" height="300" as="geometry" />
        </mxCell>
        <mxCell id="8sShFJXzrjoNy3E7Pt8Y-24" value="" style="endArrow=none;html=1;rounded=0;" parent="WIyWlLk6GJQsqaUBKTNV-1" edge="1">
          <mxGeometry width="50" height="50" relative="1" as="geometry">
            <mxPoint x="1350" y="660" as="sourcePoint" />
            <mxPoint x="1350" y="410" as="targetPoint" />
          </mxGeometry>
        </mxCell>
        <mxCell id="8sShFJXzrjoNy3E7Pt8Y-25" value="" style="endArrow=none;html=1;rounded=0;entryX=0;entryY=0.5;entryDx=0;entryDy=0;" parent="WIyWlLk6GJQsqaUBKTNV-1" target="8sShFJXzrjoNy3E7Pt8Y-35" edge="1">
          <mxGeometry width="50" height="50" relative="1" as="geometry">
            <mxPoint x="1350" y="495" as="sourcePoint" />
            <mxPoint x="1320" y="380" as="targetPoint" />
          </mxGeometry>
        </mxCell>
        <mxCell id="8sShFJXzrjoNy3E7Pt8Y-26" value="" style="endArrow=classic;html=1;rounded=0;entryX=1;entryY=0.5;entryDx=0;entryDy=0;" parent="WIyWlLk6GJQsqaUBKTNV-1" target="8sShFJXzrjoNy3E7Pt8Y-7" edge="1">
          <mxGeometry width="50" height="50" relative="1" as="geometry">
            <mxPoint x="1350" y="410" as="sourcePoint" />
            <mxPoint x="1320" y="380" as="targetPoint" />
          </mxGeometry>
        </mxCell>
        <mxCell id="8sShFJXzrjoNy3E7Pt8Y-27" value="" style="endArrow=classic;html=1;rounded=0;entryX=1;entryY=0.5;entryDx=0;entryDy=0;" parent="WIyWlLk6GJQsqaUBKTNV-1" target="8sShFJXzrjoNy3E7Pt8Y-11" edge="1">
          <mxGeometry width="50" height="50" relative="1" as="geometry">
            <mxPoint x="1350" y="500" as="sourcePoint" />
            <mxPoint x="1320" y="480" as="targetPoint" />
          </mxGeometry>
        </mxCell>
        <mxCell id="8sShFJXzrjoNy3E7Pt8Y-28" value="交易测算" style="rounded=1;whiteSpace=wrap;html=1;" parent="WIyWlLk6GJQsqaUBKTNV-1" vertex="1">
          <mxGeometry x="1844.5" y="385" width="130" height="60" as="geometry" />
        </mxCell>
        <mxCell id="8sShFJXzrjoNy3E7Pt8Y-29" value="债券借贷" style="rounded=1;whiteSpace=wrap;html=1;" parent="WIyWlLk6GJQsqaUBKTNV-1" vertex="1">
          <mxGeometry x="1844.5" y="480" width="130" height="60" as="geometry" />
        </mxCell>
        <mxCell id="8sShFJXzrjoNy3E7Pt8Y-30" value="一级承销费纳入" style="rounded=1;whiteSpace=wrap;html=1;" parent="WIyWlLk6GJQsqaUBKTNV-1" vertex="1">
          <mxGeometry x="1844.5" y="580" width="131" height="60" as="geometry" />
        </mxCell>
        <mxCell id="8sShFJXzrjoNy3E7Pt8Y-35" value="" style="rounded=0;whiteSpace=wrap;html=1;" parent="WIyWlLk6GJQsqaUBKTNV-1" vertex="1">
          <mxGeometry x="1480" y="410" width="180" height="170" as="geometry" />
        </mxCell>
        <mxCell id="8sShFJXzrjoNy3E7Pt8Y-31" value="境外债归因" style="rounded=1;whiteSpace=wrap;html=1;" parent="WIyWlLk6GJQsqaUBKTNV-1" vertex="1">
          <mxGeometry x="1120" y="555" width="130" height="60" as="geometry" />
        </mxCell>
        <mxCell id="8sShFJXzrjoNy3E7Pt8Y-32" value="委外基金归因" style="rounded=1;whiteSpace=wrap;html=1;" parent="WIyWlLk6GJQsqaUBKTNV-1" vertex="1">
          <mxGeometry x="1120" y="630" width="130" height="60" as="geometry" />
        </mxCell>
        <mxCell id="8sShFJXzrjoNy3E7Pt8Y-34" value="境外债投后分析" style="rounded=1;whiteSpace=wrap;html=1;" parent="WIyWlLk6GJQsqaUBKTNV-1" vertex="1">
          <mxGeometry x="1505" y="605" width="130" height="60" as="geometry" />
        </mxCell>
        <mxCell id="8sShFJXzrjoNy3E7Pt8Y-17" value="task构表服务" style="rounded=1;whiteSpace=wrap;html=1;" parent="WIyWlLk6GJQsqaUBKTNV-1" vertex="1">
          <mxGeometry x="1510" y="420" width="120" height="60" as="geometry" />
        </mxCell>
        <mxCell id="8sShFJXzrjoNy3E7Pt8Y-18" value="clear清算服务" style="whiteSpace=wrap;html=1;rounded=1;" parent="WIyWlLk6GJQsqaUBKTNV-1" vertex="1">
          <mxGeometry x="1510" y="505" width="120" height="60" as="geometry" />
        </mxCell>
        <mxCell id="8sShFJXzrjoNy3E7Pt8Y-36" value="" style="endArrow=classic;html=1;rounded=0;entryX=1;entryY=0.5;entryDx=0;entryDy=0;" parent="WIyWlLk6GJQsqaUBKTNV-1" target="8sShFJXzrjoNy3E7Pt8Y-31" edge="1">
          <mxGeometry width="50" height="50" relative="1" as="geometry">
            <mxPoint x="1350" y="585" as="sourcePoint" />
            <mxPoint x="1490" y="600" as="targetPoint" />
          </mxGeometry>
        </mxCell>
        <mxCell id="8sShFJXzrjoNy3E7Pt8Y-37" value="" style="endArrow=classic;html=1;rounded=0;entryX=1;entryY=0.5;entryDx=0;entryDy=0;" parent="WIyWlLk6GJQsqaUBKTNV-1" target="8sShFJXzrjoNy3E7Pt8Y-32" edge="1">
          <mxGeometry width="50" height="50" relative="1" as="geometry">
            <mxPoint x="1350" y="660" as="sourcePoint" />
            <mxPoint x="1490" y="600" as="targetPoint" />
          </mxGeometry>
        </mxCell>
        <mxCell id="8sShFJXzrjoNy3E7Pt8Y-38" value="" style="endArrow=classic;html=1;rounded=0;entryX=-0.006;entryY=0.417;entryDx=0;entryDy=0;entryPerimeter=0;exitX=1;exitY=0.5;exitDx=0;exitDy=0;" parent="WIyWlLk6GJQsqaUBKTNV-1" source="8sShFJXzrjoNy3E7Pt8Y-35" target="8sShFJXzrjoNy3E7Pt8Y-33" edge="1">
          <mxGeometry width="50" height="50" relative="1" as="geometry">
            <mxPoint x="1490" y="610" as="sourcePoint" />
            <mxPoint x="1540" y="560" as="targetPoint" />
          </mxGeometry>
        </mxCell>
        <mxCell id="8sShFJXzrjoNy3E7Pt8Y-39" value="" style="endArrow=classic;html=1;rounded=0;entryX=0.5;entryY=0;entryDx=0;entryDy=0;exitX=0.5;exitY=1;exitDx=0;exitDy=0;" parent="WIyWlLk6GJQsqaUBKTNV-1" source="8sShFJXzrjoNy3E7Pt8Y-35" target="8sShFJXzrjoNy3E7Pt8Y-34" edge="1">
          <mxGeometry width="50" height="50" relative="1" as="geometry">
            <mxPoint x="1490" y="610" as="sourcePoint" />
            <mxPoint x="1540" y="560" as="targetPoint" />
          </mxGeometry>
        </mxCell>
        <mxCell id="8sShFJXzrjoNy3E7Pt8Y-40" value="" style="endArrow=none;html=1;rounded=0;exitX=0.5;exitY=1;exitDx=0;exitDy=0;entryX=0.482;entryY=-0.006;entryDx=0;entryDy=0;entryPerimeter=0;" parent="WIyWlLk6GJQsqaUBKTNV-1" source="8sShFJXzrjoNy3E7Pt8Y-1" target="8sShFJXzrjoNy3E7Pt8Y-23" edge="1">
          <mxGeometry width="50" height="50" relative="1" as="geometry">
            <mxPoint x="1490" y="610" as="sourcePoint" />
            <mxPoint x="1540" y="560" as="targetPoint" />
          </mxGeometry>
        </mxCell>
        <mxCell id="8sShFJXzrjoNy3E7Pt8Y-41" value="" style="endArrow=none;html=1;rounded=0;exitX=0.5;exitY=1;exitDx=0;exitDy=0;entryX=0.544;entryY=0.002;entryDx=0;entryDy=0;entryPerimeter=0;" parent="WIyWlLk6GJQsqaUBKTNV-1" source="8sShFJXzrjoNy3E7Pt8Y-15" target="8sShFJXzrjoNy3E7Pt8Y-19" edge="1">
          <mxGeometry width="50" height="50" relative="1" as="geometry">
            <mxPoint x="1490" y="510" as="sourcePoint" />
            <mxPoint x="1540" y="460" as="targetPoint" />
          </mxGeometry>
        </mxCell>
        <mxCell id="8sShFJXzrjoNy3E7Pt8Y-42" value="" style="endArrow=none;html=1;rounded=0;exitX=0.5;exitY=0;exitDx=0;exitDy=0;entryX=0.5;entryY=1;entryDx=0;entryDy=0;" parent="WIyWlLk6GJQsqaUBKTNV-1" source="8sShFJXzrjoNy3E7Pt8Y-33" target="8sShFJXzrjoNy3E7Pt8Y-16" edge="1">
          <mxGeometry width="50" height="50" relative="1" as="geometry">
            <mxPoint x="1490" y="510" as="sourcePoint" />
            <mxPoint x="1540" y="460" as="targetPoint" />
          </mxGeometry>
        </mxCell>
        <mxCell id="8sShFJXzrjoNy3E7Pt8Y-43" value="" style="endArrow=classic;html=1;rounded=0;exitX=0.5;exitY=1;exitDx=0;exitDy=0;entryX=0.5;entryY=0;entryDx=0;entryDy=0;" parent="WIyWlLk6GJQsqaUBKTNV-1" source="8sShFJXzrjoNy3E7Pt8Y-0" target="8sShFJXzrjoNy3E7Pt8Y-15" edge="1">
          <mxGeometry width="50" height="50" relative="1" as="geometry">
            <mxPoint x="1330" y="580" as="sourcePoint" />
            <mxPoint x="1380" y="530" as="targetPoint" />
          </mxGeometry>
        </mxCell>
      </root>
    </mxGraphModel>
  </diagram>
</mxfile>
